<?xml version="1.0" standalone="no"?><!DOCTYPE svg PUBLIC "-//W3C//DTD SVG 1.1//EN" "http://www.w3.org/Graphics/SVG/1.1/DTD/svg11.dtd"><svg t="1616145283994" class="icon" viewBox="0 0 1024 1024" version="1.1" xmlns="http://www.w3.org/2000/svg" p-id="1408" width="40" height="40" xmlns:xlink="http://www.w3.org/1999/xlink"><defs><style type="text/css"></style></defs><path d="M512.367552 22.053123c270.518306 0 490.314429 219.061019 490.314429 490.314429 0 270.518306-219.061019 490.314429-490.314429 490.314429C241.114142 1001.946877 22.053123 782.885858 22.053123 512.367552 22.053123 241.114142 241.114142 22.053123 512.367552 22.053123z" fill="#FFFFFF" p-id="1409"></path><path d="M512.367552 1024C229.352477 1024 0 794.647523 0 512.367552S229.352477 0 512.367552 0s512.367552 229.352477 512.367552 512.367552c-0.735104 282.279971-230.087581 511.632448-512.367552 511.632448zM512.367552 44.106246C253.610912 44.106246 44.106246 253.610912 44.106246 512.367552s209.504666 468.261307 468.261306 468.261307 468.261307-209.504666 468.261307-468.261307S770.389088 44.106246 512.367552 44.106246z" fill="#888888" p-id="1410"></path><path d="M512.367552 512.367552m-343.293611 0a343.293611 343.293611 0 1 0 686.587222 0 343.293611 343.293611 0 1 0-686.587222 0Z" fill="#04BEBD" p-id="1411"></path><path d="M524.129218 285.220388l61.013639 123.497487c2.205312 3.67552 5.880833 6.615937 10.291457 7.351041l135.994257 19.84781c11.026561 1.470208 15.437186 15.437186 7.351041 22.788227l-98.503948 95.563532c-2.940416 2.940416-4.410625 7.351041-3.67552 11.761666l23.523331 135.259153c2.205312 11.026561-9.556353 19.112706-19.112707 13.966977l-121.292175-63.954056c-3.67552-2.205312-8.821249-2.205312-12.49677 0l-121.292175 63.954056c-9.556353 5.145729-21.318019-2.940416-19.112706-13.966977L388.134961 566.030151c0.735104-4.410625-0.735104-8.821249-3.675521-11.761666l-98.503948-95.563532c-8.086145-8.086145-3.67552-21.318019 7.351041-22.788227l135.994257-19.84781c4.410625-0.735104 8.086145-3.67552 10.291457-7.351041L499.870782 285.220388c5.145729-10.291457 19.112706-10.291457 24.258436 0z" fill="#FFFFFF" p-id="1412"></path></svg>